<svg width="14" height="14" viewBox="0 0 14 14" fill="none" xmlns="http://www.w3.org/2000/svg">
<path d="M12.4136 10.9293C12.1189 10.2311 11.6911 9.59696 11.1542 9.06211C10.619 8.52572 9.98491 8.09806 9.28705 7.80274C9.2808 7.79961 9.27455 7.79805 9.2683 7.79492C10.2417 7.0918 10.8746 5.94649 10.8746 4.6543C10.8746 2.51367 9.14018 0.779297 6.99955 0.779297C4.85893 0.779297 3.12455 2.51367 3.12455 4.6543C3.12455 5.94649 3.75736 7.0918 4.7308 7.79649C4.72455 7.79961 4.7183 7.80117 4.71205 7.8043C4.01205 8.09961 3.38393 8.52305 2.84486 9.06367C2.30847 9.59894 1.88081 10.233 1.58549 10.9309C1.29537 11.6141 1.1389 12.3466 1.12455 13.0887C1.12413 13.1054 1.12706 13.1219 1.13315 13.1375C1.13925 13.153 1.14839 13.1672 1.16004 13.1791C1.17169 13.191 1.18561 13.2005 1.20098 13.207C1.21636 13.2135 1.23287 13.2168 1.24955 13.2168H2.18705C2.2558 13.2168 2.31049 13.1621 2.31205 13.0949C2.3433 11.8887 2.82768 10.759 3.68393 9.90274C4.56986 9.0168 5.74643 8.5293 6.99955 8.5293C8.25268 8.5293 9.42924 9.0168 10.3152 9.90274C11.1714 10.759 11.6558 11.8887 11.6871 13.0949C11.6886 13.1637 11.7433 13.2168 11.8121 13.2168H12.7496C12.7662 13.2168 12.7827 13.2135 12.7981 13.207C12.8135 13.2005 12.8274 13.191 12.8391 13.1791C12.8507 13.1672 12.8599 13.153 12.8659 13.1375C12.872 13.1219 12.875 13.1054 12.8746 13.0887C12.8589 12.3418 12.7042 11.6152 12.4136 10.9293V10.9293ZM6.99955 7.3418C6.28236 7.3418 5.60736 7.06211 5.09955 6.5543C4.59174 6.04649 4.31205 5.37149 4.31205 4.6543C4.31205 3.93711 4.59174 3.26211 5.09955 2.7543C5.60736 2.24648 6.28236 1.9668 6.99955 1.9668C7.71674 1.9668 8.39174 2.24648 8.89955 2.7543C9.40736 3.26211 9.68705 3.93711 9.68705 4.6543C9.68705 5.37149 9.40736 6.04649 8.89955 6.5543C8.39174 7.06211 7.71674 7.3418 6.99955 7.3418Z" fill="black" fill-opacity="0.85"/>
</svg>
