<svg width="14" height="14" viewBox="0 0 14 14" fill="none" xmlns="http://www.w3.org/2000/svg">
<g clip-path="url(#clip0_48_6658)">
<path d="M13.2424 9.95039C13.2369 9.93486 13.2282 9.92058 13.2171 9.90839C13.206 9.89619 13.1926 9.88632 13.1776 9.87935C13.1626 9.87238 13.1464 9.86844 13.1299 9.86776C13.1134 9.86708 13.097 9.86967 13.0815 9.87539L12.1252 10.2238V1.81445C12.1252 1.22695 11.6502 0.751953 11.0627 0.751953H2.93774C2.35024 0.751953 1.87524 1.22695 1.87524 1.81445V10.2238L0.917432 9.87539C0.903369 9.8707 0.889307 9.86758 0.875244 9.86758C0.806494 9.86758 0.750244 9.92383 0.750244 9.99258V10.9238C0.750244 10.9754 0.783057 11.0223 0.833057 11.041L6.82837 13.2223C6.93931 13.2629 7.05962 13.2629 7.17056 13.2223L13.1674 11.0426C13.2174 11.0238 13.2502 10.977 13.2502 10.9254V9.99414C13.2502 9.97852 13.2471 9.96445 13.2424 9.95039ZM7.00024 12.0879L3.00024 10.6332V1.87695H11.0002V10.6332L7.00024 12.0879ZM9.32212 3.87695H8.47056C8.42368 3.87695 8.37993 3.90352 8.35962 3.9457L7.03618 6.5832H6.98462L5.66118 3.9457C5.65082 3.92514 5.63497 3.90783 5.6154 3.8957C5.59582 3.88357 5.57328 3.87708 5.55024 3.87695H4.67993C4.65962 3.87695 4.63931 3.88164 4.62056 3.89258C4.55962 3.92539 4.53774 4.00195 4.57056 4.06133L6.19399 7.05508H5.30337C5.23462 7.05508 5.17837 7.11133 5.17837 7.18008V7.60352C5.17837 7.67227 5.23462 7.72852 5.30337 7.72852H6.49087V8.33789H5.30337C5.23462 8.33789 5.17837 8.39414 5.17837 8.46289V8.88633C5.17837 8.95508 5.23462 9.01133 5.30337 9.01133H6.49087V10.002C6.49087 10.0707 6.54712 10.127 6.61587 10.127H7.39556C7.46431 10.127 7.52056 10.0707 7.52056 10.002V9.00977H8.71274C8.78149 9.00977 8.83774 8.95352 8.83774 8.88477V8.46133C8.83774 8.39258 8.78149 8.33633 8.71274 8.33633H7.52056V7.72695H8.71274C8.78149 7.72695 8.83774 7.6707 8.83774 7.60195V7.17852C8.83774 7.10977 8.78149 7.05352 8.71274 7.05352H7.81274L9.43306 4.05977C9.44243 4.04102 9.44868 4.0207 9.44868 4.00039C9.44712 3.9332 9.39087 3.87695 9.32212 3.87695V3.87695Z" fill="black" fill-opacity="0.85"/>
</g>
<defs>
<clipPath id="clip0_48_6658">
<rect width="14" height="14" fill="white"/>
</clipPath>
</defs>
</svg>
