<svg width="14" height="14" viewBox="0 0 14 14" fill="none" xmlns="http://www.w3.org/2000/svg">
<path d="M13.5 1.49719H0.5C0.223437 1.49719 0 1.72063 0 1.99719V11.9972C0 12.2738 0.223437 12.4972 0.5 12.4972H13.5C13.7766 12.4972 14 12.2738 14 11.9972V1.99719C14 1.72063 13.7766 1.49719 13.5 1.49719ZM12.875 4.74719H9.5625V2.62219H12.875V4.74719ZM12.875 8.24719H9.5625V5.74719H12.875V8.24719ZM5.4375 5.74719H8.5625V8.24719H5.4375V5.74719ZM8.5625 4.74719H5.4375V2.62219H8.5625V4.74719ZM1.125 5.74719H4.4375V8.24719H1.125V5.74719ZM1.125 2.62219H4.4375V4.74719H1.125V2.62219ZM1.125 9.24719H4.4375V11.3722H1.125V9.24719ZM5.4375 9.24719H8.5625V11.3722H5.4375V9.24719ZM12.875 11.3722H9.5625V9.24719H12.875V11.3722Z" fill="black" fill-opacity="0.85"/>
</svg>
