<svg width="14" height="14" viewBox="0 0 14 14" fill="none" xmlns="http://www.w3.org/2000/svg">
<path d="M6.99976 0.998047C3.68569 0.998047 0.999756 3.68398 0.999756 6.99805V12.623C0.999756 12.8309 1.16694 12.998 1.37476 12.998H4.24976C4.80132 12.998 5.24976 12.5496 5.24976 11.998V8.74805C5.24976 8.19649 4.80132 7.74805 4.24976 7.74805H2.12476V6.99805C2.12476 4.30586 4.30757 2.12305 6.99976 2.12305C9.69195 2.12305 11.8748 4.30586 11.8748 6.99805V7.74805H9.74976C9.1982 7.74805 8.74976 8.19649 8.74976 8.74805V11.998C8.74976 12.5496 9.1982 12.998 9.74976 12.998H12.6248C12.8326 12.998 12.9998 12.8309 12.9998 12.623V6.99805C12.9998 3.68398 10.3138 0.998047 6.99976 0.998047ZM4.12476 8.87305V11.873H2.12476V8.87305H4.12476ZM11.8748 11.873H9.87476V8.87305H11.8748V11.873Z" fill="black" fill-opacity="0.85"/>
</svg>
