<svg width="14" height="14" viewBox="0 0 14 14" fill="none" xmlns="http://www.w3.org/2000/svg">
<path d="M13.5 2.49719H11V1.62219C11 1.55344 10.9438 1.49719 10.875 1.49719H10C9.93125 1.49719 9.875 1.55344 9.875 1.62219V2.49719H7.5625V1.62219C7.5625 1.55344 7.50625 1.49719 7.4375 1.49719H6.5625C6.49375 1.49719 6.4375 1.55344 6.4375 1.62219V2.49719H4.125V1.62219C4.125 1.55344 4.06875 1.49719 4 1.49719H3.125C3.05625 1.49719 3 1.55344 3 1.62219V2.49719H0.5C0.223437 2.49719 0 2.72063 0 2.99719V11.9972C0 12.2738 0.223437 12.4972 0.5 12.4972H13.5C13.7766 12.4972 14 12.2738 14 11.9972V2.99719C14 2.72063 13.7766 2.49719 13.5 2.49719ZM12.875 11.3722H1.125V3.62219H3V4.49719C3 4.56594 3.05625 4.62219 3.125 4.62219H4C4.06875 4.62219 4.125 4.56594 4.125 4.49719V3.62219H6.4375V4.49719C6.4375 4.56594 6.49375 4.62219 6.5625 4.62219H7.4375C7.50625 4.62219 7.5625 4.56594 7.5625 4.49719V3.62219H9.875V4.49719C9.875 4.56594 9.93125 4.62219 10 4.62219H10.875C10.9438 4.62219 11 4.56594 11 4.49719V3.62219H12.875V11.3722ZM5.5 6.74719H2.625C2.55625 6.74719 2.5 6.80344 2.5 6.87219V7.62219C2.5 7.69094 2.55625 7.74719 2.625 7.74719H5.5C5.56875 7.74719 5.625 7.69094 5.625 7.62219V6.87219C5.625 6.80344 5.56875 6.74719 5.5 6.74719ZM5.5 8.87219H2.625C2.55625 8.87219 2.5 8.92844 2.5 8.99719V9.74719C2.5 9.81594 2.55625 9.87219 2.625 9.87219H5.5C5.56875 9.87219 5.625 9.81594 5.625 9.74719V8.99719C5.625 8.92844 5.56875 8.87219 5.5 8.87219ZM10.3156 6.10032L8.69687 8.34563L7.87187 7.20344C7.825 7.13782 7.75 7.10032 7.67031 7.10032H6.8125C6.71094 7.10032 6.65156 7.21594 6.71094 7.29876L8.49375 9.77063C8.51677 9.80257 8.54704 9.82859 8.58209 9.84653C8.61713 9.86447 8.65594 9.87383 8.69531 9.87383C8.73468 9.87383 8.77349 9.86447 8.80854 9.84653C8.84358 9.82859 8.87386 9.80257 8.89688 9.77063L11.475 6.19719C11.5344 6.11438 11.475 5.99876 11.3734 5.99876H10.5156C10.4375 5.99719 10.3625 6.03626 10.3156 6.10032Z" fill="black" fill-opacity="0.85"/>
</svg>
