<svg width="14" height="14" viewBox="0 0 14 14" fill="none" xmlns="http://www.w3.org/2000/svg">
<path d="M12.875 11.3755H2.125V1.62549C2.125 1.55674 2.06875 1.50049 2 1.50049H1.125C1.05625 1.50049 1 1.55674 1 1.62549V12.3755C1 12.4442 1.05625 12.5005 1.125 12.5005H12.875C12.9438 12.5005 13 12.4442 13 12.3755V11.5005C13 11.4317 12.9438 11.3755 12.875 11.3755ZM3.5 10.1255H4.375C4.44375 10.1255 4.5 10.0692 4.5 10.0005V7.75049C4.5 7.68174 4.44375 7.62549 4.375 7.62549H3.5C3.43125 7.62549 3.375 7.68174 3.375 7.75049V10.0005C3.375 10.0692 3.43125 10.1255 3.5 10.1255ZM5.875 10.1255H6.75C6.81875 10.1255 6.875 10.0692 6.875 10.0005V5.00049C6.875 4.93174 6.81875 4.87549 6.75 4.87549H5.875C5.80625 4.87549 5.75 4.93174 5.75 5.00049V10.0005C5.75 10.0692 5.80625 10.1255 5.875 10.1255ZM8.25 10.1255H9.125C9.19375 10.1255 9.25 10.0692 9.25 10.0005V6.21924C9.25 6.15049 9.19375 6.09424 9.125 6.09424H8.25C8.18125 6.09424 8.125 6.15049 8.125 6.21924V10.0005C8.125 10.0692 8.18125 10.1255 8.25 10.1255ZM10.625 10.1255H11.5C11.5688 10.1255 11.625 10.0692 11.625 10.0005V3.75049C11.625 3.68174 11.5688 3.62549 11.5 3.62549H10.625C10.5563 3.62549 10.5 3.68174 10.5 3.75049V10.0005C10.5 10.0692 10.5563 10.1255 10.625 10.1255Z" fill="black" fill-opacity="0.85"/>
</svg>
