<svg width="18" height="16" viewBox="0 0 18 16" fill="none" xmlns="http://www.w3.org/2000/svg">
<path d="M16 1H15C15 0.734784 14.8946 0.48043 14.7071 0.292893C14.5196 0.105357 14.2652 0 14 0C13.7348 0 13.4804 0.105357 13.2929 0.292893C13.1054 0.48043 13 0.734784 13 1H5C5 0.734784 4.89464 0.48043 4.70711 0.292893C4.51957 0.105357 4.26522 0 4 0C3.73478 0 3.48043 0.105357 3.29289 0.292893C3.10536 0.48043 3 0.734784 3 1H2C1.46957 1 0.960859 1.21071 0.585786 1.58579C0.210714 1.96086 0 2.46957 0 3V14C0 14.5304 0.210714 15.0391 0.585786 15.4142C0.960859 15.7893 1.46957 16 2 16H16C16.5304 16 17.0391 15.7893 17.4142 15.4142C17.7893 15.0391 18 14.5304 18 14V3C18 2.46957 17.7893 1.96086 17.4142 1.58579C17.0391 1.21071 16.5304 1 16 1ZM17 14C17 14.2652 16.8946 14.5196 16.7071 14.7071C16.5196 14.8946 16.2652 15 16 15H2C1.73478 15 1.48043 14.8946 1.29289 14.7071C1.10536 14.5196 1 14.2652 1 14V5H17V14ZM17 4H1V3C1 2.73478 1.10536 2.48043 1.29289 2.29289C1.48043 2.10536 1.73478 2 2 2H16C16.2652 2 16.5196 2.10536 16.7071 2.29289C16.8946 2.48043 17 2.73478 17 3V4Z" fill="#0A1121"/>
<path d="M4.5 10C5.32843 10 6 9.32843 6 8.5C6 7.67157 5.32843 7 4.5 7C3.67157 7 3 7.67157 3 8.5C3 9.32843 3.67157 10 4.5 10Z" fill="#0A1121"/>
<path d="M16 1H15C15 0.734784 14.8946 0.48043 14.7071 0.292893C14.5196 0.105357 14.2652 0 14 0C13.7348 0 13.4804 0.105357 13.2929 0.292893C13.1054 0.48043 13 0.734784 13 1H5C5 0.734784 4.89464 0.48043 4.70711 0.292893C4.51957 0.105357 4.26522 0 4 0C3.73478 0 3.48043 0.105357 3.29289 0.292893C3.10536 0.48043 3 0.734784 3 1H2C1.46957 1 0.960859 1.21071 0.585786 1.58579C0.210714 1.96086 0 2.46957 0 3V14C0 14.5304 0.210714 15.0391 0.585786 15.4142C0.960859 15.7893 1.46957 16 2 16H16C16.5304 16 17.0391 15.7893 17.4142 15.4142C17.7893 15.0391 18 14.5304 18 14V3C18 2.46957 17.7893 1.96086 17.4142 1.58579C17.0391 1.21071 16.5304 1 16 1ZM17 14C17 14.2652 16.8946 14.5196 16.7071 14.7071C16.5196 14.8946 16.2652 15 16 15H2C1.73478 15 1.48043 14.8946 1.29289 14.7071C1.10536 14.5196 1 14.2652 1 14V5H17V14ZM17 4H1V3C1 2.73478 1.10536 2.48043 1.29289 2.29289C1.48043 2.10536 1.73478 2 2 2H16C16.2652 2 16.5196 2.10536 16.7071 2.29289C16.8946 2.48043 17 2.73478 17 3V4Z" fill="#0A1121"/>
<path d="M4.5 10C5.32843 10 6 9.32843 6 8.5C6 7.67157 5.32843 7 4.5 7C3.67157 7 3 7.67157 3 8.5C3 9.32843 3.67157 10 4.5 10Z" fill="#0A1121"/>
</svg>
