<svg width="24" height="24" viewBox="0 0 24 24" fill="none" xmlns="http://www.w3.org/2000/svg">
<path d="M12.5 2.5C11.759 2.5 11.007 2.614 10.25 2.812C9.716 2.953 9.422 3.49701 9.562 4.03101C9.703 4.56501 10.247 4.89 10.781 4.75C11.379 4.593 11.939 4.5 12.5 4.5C13.078 4.5 13.654 4.593 14.25 4.75C14.784 4.89 15.328 4.56501 15.469 4.03101C15.609 3.49701 15.284 2.953 14.75 2.812C13.994 2.614 13.256 2.5 12.5 2.5ZM12.5 5.5C8.082 5.5 4.5 9.082 4.5 13.5C4.5 17.918 8.082 21.5 12.5 21.5C16.918 21.5 20.5 17.918 20.5 13.5C20.5 9.082 16.918 5.5 12.5 5.5ZM19.5 5.5C18.948 5.5 18.5 5.948 18.5 6.5C18.5 7.052 18.948 7.5 19.5 7.5C20.052 7.5 20.5 7.052 20.5 6.5C20.5 5.948 20.052 5.5 19.5 5.5ZM12.5 9.5C13.052 9.5 13.5 9.948 13.5 10.5V13.062L15.219 14.781C15.609 15.172 15.609 15.828 15.219 16.219C14.828 16.609 14.172 16.609 13.781 16.219L11.781 14.219C11.594 14.031 11.5 13.765 11.5 13.5V10.5C11.5 9.948 11.948 9.5 12.5 9.5Z" fill="#2A343D" stroke="#2A343D" stroke-width="0.002" stroke-linecap="round" stroke-linejoin="round"/>
</svg>
