<svg width="24" height="24" viewBox="0 0 24 24" fill="none" xmlns="http://www.w3.org/2000/svg">
<g clip-path="url(#clip0_1_2784)">
<path d="M12.4981 1.45312C11.7571 1.45312 11.0051 1.56712 10.248 1.76512C9.71385 1.90612 9.42045 2.45013 9.56055 2.98413C9.70065 3.51813 10.245 3.84313 10.779 3.70312C11.377 3.54612 11.9371 3.45312 12.4981 3.45312C13.0761 3.45312 13.6521 3.54612 14.2481 3.70312C14.7821 3.84313 15.3261 3.51813 15.4671 2.98413C15.6071 2.45013 15.2821 1.90612 14.7481 1.76512C13.9921 1.56712 13.2541 1.45312 12.4981 1.45312ZM12.4981 4.45312C8.07975 4.45312 4.49805 8.03512 4.49805 12.4531C4.49805 16.8711 8.07975 20.4531 12.4981 20.4531C16.9161 20.4531 20.4981 16.8711 20.4981 12.4531C20.4981 8.03512 16.9161 4.45312 12.4981 4.45312ZM19.4981 4.45312C18.9461 4.45312 18.4981 4.90112 18.4981 5.45312C18.4981 6.00513 18.9461 6.45312 19.4981 6.45312C20.0501 6.45312 20.4981 6.00513 20.4981 5.45312C20.4981 4.90112 20.0501 4.45312 19.4981 4.45312ZM12.4981 6.45312C15.8121 6.45312 18.4981 9.13912 18.4981 12.4531C18.4981 15.7671 15.8121 18.4531 12.4981 18.4531C9.18435 18.4531 6.49805 15.7671 6.49805 12.4531C6.49805 9.13912 9.18435 6.45312 12.4981 6.45312ZM12.4981 8.45312C11.9461 8.45312 11.4981 8.90112 11.4981 9.45312V12.4531C11.4981 12.7181 11.592 12.9841 11.779 13.1721L13.779 15.1721C14.17 15.5621 14.8261 15.5621 15.2171 15.1721C15.6071 14.7811 15.6071 14.1251 15.2171 13.7341L13.4981 12.0151V9.45312C13.4981 8.90112 13.0501 8.45312 12.4981 8.45312Z" fill="#2A343D"/>
</g>
<defs>
<clipPath id="clip0_1_2784">
<rect width="24" height="24" fill="white"/>
</clipPath>
</defs>
</svg>
