<svg width="24" height="24" viewBox="0 0 24 24" fill="none" xmlns="http://www.w3.org/2000/svg">
<path d="M7.4989 2.99219C4.4613 2.99219 1.9989 5.45419 1.9989 8.4922C1.9989 11.6762 3.8124 14.6802 6.8114 17.4302C7.835 18.3682 8.9371 19.1912 10.0301 19.9302C10.4132 20.1882 10.7715 20.4222 11.0927 20.6172C11.2885 20.7362 11.4176 20.8222 11.4989 20.8672C11.8009 21.0352 12.1969 21.0352 12.4989 20.8672C12.5802 20.8222 12.7093 20.7362 12.9051 20.6172C13.2263 20.4222 13.5846 20.1882 13.9677 19.9302C15.0607 19.1912 16.1628 18.3682 17.1864 17.4302C20.1854 14.6802 21.9989 11.6762 21.9989 8.4922C21.9989 5.45419 19.5365 2.99219 16.4989 2.99219C14.7737 2.99219 13.0893 3.9322 12.0301 5.3042C10.9973 3.9082 9.3188 2.99219 7.4989 2.99219Z" fill="#2A343D"/>
</svg>
