<svg width="14" height="14" viewBox="0 0 14 14" fill="none" xmlns="http://www.w3.org/2000/svg">
<path d="M6.75 0C3.02197 0 0 3.02211 0 6.75C0 7.71795 0.215992 8.68198 0.633142 9.57656C0.0796421 12.4352 0.020929 12.6984 0.020929 12.6984C-0.069521 13.1666 0.332767 13.5676 0.801892 13.4789C0.801892 13.4789 1.05772 13.4347 3.9447 12.8883C4.81612 13.3025 5.78205 13.5 6.75 13.5C10.478 13.5 13.5 10.4779 13.5 6.75C13.5 3.02211 10.478 0 6.75 0ZM6.75 1.35C9.73215 1.35 12.15 3.76765 12.15 6.75C12.15 9.73235 9.73215 12.15 6.75 12.15C5.90152 12.15 5.08679 11.9507 4.34564 11.5804C4.21334 11.5146 4.06823 11.4897 3.92311 11.5172C1.52686 11.9708 1.7172 11.9437 1.51875 11.9812C1.5579 11.7804 1.52414 11.9889 1.98314 9.61875C2.01149 9.472 1.98652 9.30927 1.9197 9.17582C1.54305 8.42947 1.35 7.60563 1.35 6.75C1.35 3.76765 3.76785 1.35 6.75 1.35ZM4.85189 3.375C4.21874 3.375 3.375 4.21875 3.375 4.85156C3.375 5.6671 4.21875 7.17188 5.0625 8.01562C5.15362 8.10641 5.39325 8.34671 5.48437 8.4375C6.32812 9.28125 7.83271 10.125 8.64811 10.125C9.28126 10.125 10.125 9.28125 10.125 8.64844C10.125 8.01562 9.28126 7.17188 8.64811 7.17188C8.43751 7.17188 7.67407 7.60826 7.59375 7.59375C6.92145 7.47238 6.04665 6.57639 5.90625 5.90625C5.88667 5.8127 6.32812 5.0625 6.32812 4.85156C6.32812 4.21875 5.48437 3.375 4.85189 3.375Z" fill="#2A343D"/>
</svg>
