<svg width="22" height="22" viewBox="0 0 22 22" fill="none" xmlns="http://www.w3.org/2000/svg">
<path d="M10.5147 1.83203C7.39993 1.83203 5.25371 4.07604 5.25371 7.33205C5.25371 7.77663 5.25371 9.13789 5.25371 9.16539C5.25371 9.46055 5.11114 9.66131 4.62345 10.0821C4.56812 10.1297 4.3362 10.3378 4.26728 10.3974C3.15774 11.3562 2.61165 12.2546 2.62323 13.7487C2.63489 15.2594 3.81282 16.4813 5.25371 16.4987H8.03853C8.03853 16.4987 7.8842 17.0588 7.8842 17.4154C7.8842 18.9343 9.06178 20.1654 10.5147 20.1654C11.9676 20.1654 13.1452 18.9343 13.1452 17.4154C13.1452 17.0588 12.9979 16.4987 12.9979 16.4987H15.7757C17.2137 16.5042 18.4079 15.2658 18.4062 13.7487C18.4044 12.2656 17.8573 11.3516 16.7621 10.3974C16.6902 10.3341 16.4359 10.1316 16.378 10.0821C15.901 9.66589 15.7757 9.45689 15.7757 9.16539C15.7757 8.01955 15.7757 7.33205 15.7757 7.33205C15.7757 4.07604 13.6292 1.83203 10.5147 1.83203ZM10.5147 3.66537C12.6612 3.66537 14.022 5.08804 14.022 7.33205C14.022 7.33205 14.022 8.01955 14.022 9.16539C14.022 10.1389 14.4148 10.7531 15.2548 11.4855C15.3215 11.5432 15.6029 11.7742 15.6661 11.8292C16.4008 12.47 16.6516 12.9036 16.6525 13.7487C16.6534 14.2474 16.2448 14.6672 15.7757 14.6654C15.6099 14.6645 13.0575 14.6645 10.5147 14.6654C7.97215 14.6663 5.44004 14.6672 5.25371 14.6654C4.76427 14.659 4.38083 14.2575 4.37689 13.7487C4.3704 12.9054 4.62108 12.4709 5.36332 11.8292C5.42391 11.777 5.68319 11.5405 5.74693 11.4855C6.60026 10.7485 7.00737 10.1481 7.00737 9.16539C7.00737 9.13789 7.00737 7.77663 7.00737 7.33205C7.00737 5.08804 8.36847 3.66537 10.5147 3.66537ZM10.5147 16.4987C10.9987 16.4987 11.3915 16.9094 11.3915 17.4154C11.3915 17.9214 10.9987 18.3321 10.5147 18.3321C10.0307 18.3321 9.63786 17.9214 9.63786 17.4154C9.63786 16.9094 10.0307 16.4987 10.5147 16.4987Z" fill="#2A343D"/>
</svg>
