<svg width="21" height="21" viewBox="0 0 21 21" fill="none" xmlns="http://www.w3.org/2000/svg">
<path d="M16.3395 0.808594V2.70859M4.31445 0.808594V2.70859" stroke="#141B34" stroke-width="1.61538" stroke-linecap="round" stroke-linejoin="round"/>
<path d="M10.3242 11.2578H10.3332M10.3242 15.0578H10.3332M14.328 11.2578H14.337M6.32031 11.2578H6.3293M6.32031 15.0578H6.3293" stroke="#141B34" stroke-width="2.15385" stroke-linecap="round" stroke-linejoin="round"/>
<path d="M1.81055 6.50781H18.8461" stroke="#141B34" stroke-width="1.61538" stroke-linecap="round" stroke-linejoin="round"/>
<path d="M0.808594 10.5389C0.808594 6.39945 0.808594 4.32973 2.06333 3.04377C3.31806 1.75781 5.33753 1.75781 9.37646 1.75781H11.2804C15.3194 1.75781 17.3388 1.75781 18.5936 3.04377C19.8483 4.32973 19.8483 6.39945 19.8483 10.5389V11.0267C19.8483 15.1662 19.8483 17.2359 18.5936 18.5219C17.3388 19.8078 15.3194 19.8078 11.2804 19.8078H9.37646C5.33753 19.8078 3.31806 19.8078 2.06333 18.5219C0.808594 17.2359 0.808594 15.1662 0.808594 11.0267V10.5389Z" stroke="#141B34" stroke-width="1.61538" stroke-linecap="round" stroke-linejoin="round"/>
<path d="M1.30859 6.50781H19.3462" stroke="#141B34" stroke-width="1.61538" stroke-linecap="round" stroke-linejoin="round"/>
</svg>
