<svg width="21" height="21" viewBox="0 0 21 21" fill="none" xmlns="http://www.w3.org/2000/svg">
<path d="M17.8677 4.2175C17.4425 3.72296 16.9165 3.32503 16.3249 3.05038C15.7334 2.77572 15.0899 2.63069 14.4377 2.625C13.6442 2.63812 12.8669 2.85204 12.1783 3.2468C11.4898 3.64156 10.9125 4.20429 10.5002 4.8825C10.088 4.20429 9.51067 3.64156 8.82213 3.2468C8.1336 2.85204 7.35629 2.63812 6.56273 2.625C5.91054 2.63069 5.2671 2.77572 4.67554 3.05038C4.08398 3.32503 3.55796 3.72296 3.13273 4.2175C2.22996 5.24471 1.73772 6.56877 1.75023 7.93625V8.18125C1.75023 12.9237 8.09398 17.0888 10.0365 18.2525C10.1695 18.3293 10.3204 18.3697 10.474 18.3697C10.6276 18.3697 10.7785 18.3293 10.9115 18.2525C12.8977 17.0888 19.2502 12.9237 19.2502 8.18125V7.98875V7.93625C19.2627 6.56877 18.7705 5.24471 17.8677 4.2175ZM18.3752 8.0325V8.18125C18.3752 12.5038 12.189 16.4937 10.5002 17.5C8.82023 16.4937 2.62523 12.5038 2.62523 8.18125V8.0325C2.62956 8.00056 2.62956 7.96819 2.62523 7.93625C2.56297 6.82677 2.94201 5.73768 3.67966 4.90659C4.41731 4.07551 5.4537 3.56987 6.56273 3.5C7.20956 3.51447 7.84226 3.6921 8.40212 4.01638C8.96197 4.34067 9.43084 4.80112 9.76523 5.355L10.5002 6.51L11.2352 5.355C11.5696 4.80112 12.0385 4.34067 12.5983 4.01638C13.1582 3.6921 13.7909 3.51447 14.4377 3.5C15.5468 3.56987 16.5832 4.07551 17.3208 4.90659C18.0585 5.73768 18.4375 6.82677 18.3752 7.93625C18.3709 7.96819 18.3709 8.00056 18.3752 8.0325Z" fill="#0A1121"/>
</svg>
