<svg width="10" height="10" viewBox="0 0 10 10" fill="none" xmlns="http://www.w3.org/2000/svg">
<path d="M9.99993 4.34049C9.97992 4.22792 9.9248 4.12457 9.84247 4.04524C9.76015 3.9659 9.65482 3.91465 9.54159 3.89882L6.54159 3.39882L5.52492 0.382158C5.48998 0.270258 5.4202 0.172449 5.32576 0.103C5.23132 0.0335503 5.11715 -0.00390625 4.99992 -0.00390625C4.8827 -0.00390625 4.76853 0.0335503 4.67409 0.103C4.57965 0.172449 4.50987 0.270258 4.47492 0.382158L3.46659 3.39882L0.466591 3.89882C0.351854 3.91301 0.244665 3.96352 0.160699 4.04299C0.0767323 4.12246 0.0203943 4.22671 -7.59289e-05 4.34049C-0.0211469 4.45126 -0.00766568 4.56582 0.038542 4.66867C0.0847496 4.77152 0.161451 4.85769 0.258257 4.91549L2.66659 6.35716L1.66659 9.26549C1.62941 9.38029 1.63043 9.50405 1.66949 9.61823C1.70855 9.7324 1.78355 9.83085 1.88326 9.89882C1.97548 9.96501 2.08642 10 2.19992 9.99883C2.32482 9.9978 2.44552 9.95364 2.54159 9.87383L4.99992 7.93216L7.43326 9.87383C7.52933 9.95364 7.65003 9.9978 7.77492 9.99883C7.88843 10 7.99937 9.96501 8.09159 9.89882C8.1913 9.83085 8.2663 9.7324 8.30536 9.61823C8.34442 9.50405 8.34544 9.38029 8.30826 9.26549L7.33326 6.35716L9.73326 4.91549C9.83159 4.85887 9.91001 4.77321 9.95775 4.67027C10.0055 4.56732 10.0202 4.45214 9.99993 4.34049Z" fill="black"/>
</svg>
