<svg width="40" height="40" viewBox="0 0 40 40" fill="none" xmlns="http://www.w3.org/2000/svg">
<g clip-path="url(#clip0_1_1230)">
<mask id="mask0_1_1230" style="mask-type:luminance" maskUnits="userSpaceOnUse" x="0" y="4" width="35" height="36">
<path d="M34.7826 4.34766H0V39.1299H34.7826V4.34766Z" fill="white"/>
</mask>
<g mask="url(#mask0_1_1230)">
<path d="M20.2892 22.4648C19.3283 22.4648 18.4067 22.8466 17.7272 23.526C17.0478 24.2055 16.666 25.1271 16.666 26.088V30.4358C16.666 30.9115 16.7598 31.3827 16.9418 31.8223C17.1239 32.2619 17.3908 32.6613 17.7272 32.9977C18.0637 33.3342 18.4631 33.6011 18.9027 33.7832C19.3423 33.9652 19.8134 34.0589 20.2892 34.0589H23.9125L28.2603 38.4067V34.0589H30.4342C30.9099 34.0589 31.3811 33.9652 31.8207 33.7832C32.2603 33.6011 32.6597 33.3342 32.9961 32.9977C33.3325 32.6613 33.5995 32.2619 33.7816 31.8223C33.9637 31.3827 34.0573 30.9115 34.0573 30.4358V26.088C34.0573 25.1271 33.6756 24.2055 32.9961 23.526C32.3166 22.8466 31.3951 22.4648 30.4342 22.4648H20.2892Z" fill="#FFD639"/>
<path d="M30.4342 22.4648H20.2892C19.3283 22.4648 18.4067 22.8466 17.7272 23.526C17.0478 24.2055 16.666 25.1271 16.666 26.088V30.4358C16.666 29.4749 17.0478 28.5533 17.7272 27.8738C18.4067 27.1944 19.3283 26.8126 20.2892 26.8126H30.4342C31.3951 26.8126 32.3166 27.1944 32.9961 27.8738C33.6756 28.5533 34.0573 29.4749 34.0573 30.4358V26.088C34.0573 25.1271 33.6756 24.2055 32.9961 23.526C32.3166 22.8466 31.3951 22.4648 30.4342 22.4648Z" fill="#FFE88E"/>
<path d="M21.0145 5.07422H6.52171C4.98422 5.07422 3.50971 5.68498 2.42254 6.77213C1.33537 7.85928 0.724609 9.33382 0.724609 10.8713V18.1176C0.724609 19.655 1.33537 21.1295 2.42254 22.2166C3.50971 23.3038 4.98422 23.9146 6.52171 23.9146H7.97099V29.7116L14.4927 23.9146H21.0145C22.5519 23.9146 24.0265 23.3038 25.1137 22.2166C26.2008 21.1295 26.8116 19.655 26.8116 18.1176V10.8713C26.8116 9.33382 26.2008 7.85928 25.1137 6.77213C24.0265 5.68498 22.5519 5.07422 21.0145 5.07422Z" fill="#AEAEAE"/>
<path d="M8.69616 12.6094C9.04016 12.6094 9.37634 12.7114 9.66234 12.9025C9.94834 13.0935 10.1713 13.3652 10.3029 13.6829C10.4345 14.0008 10.4689 14.3504 10.4019 14.6878C10.3348 15.0251 10.1691 15.335 9.9259 15.5782C9.68268 15.8214 9.37277 15.9871 9.03547 16.0542C8.69807 16.1212 8.34841 16.0868 8.03062 15.9553C7.71284 15.8236 7.44122 15.6006 7.25013 15.3146C7.05903 15.0287 6.95703 14.6925 6.95703 14.3485C6.95703 13.8873 7.14026 13.4449 7.46641 13.1188C7.79256 12.7926 8.23492 12.6094 8.69616 12.6094Z" fill="#0A0A3C"/>
<path d="M13.913 12.6094C14.257 12.6094 14.5931 12.7114 14.8791 12.9025C15.1651 13.0935 15.3881 13.3652 15.5197 13.6829C15.6513 14.0008 15.6857 14.3504 15.6187 14.6878C15.5516 15.0251 15.3859 15.335 15.1427 15.5782C14.8995 15.8214 14.5896 15.9871 14.2523 16.0542C13.9149 16.1212 13.5652 16.0868 13.2474 15.9553C12.9297 15.8236 12.658 15.6006 12.467 15.3146C12.2758 15.0287 12.1738 14.6925 12.1738 14.3485C12.1738 13.8873 12.357 13.4449 12.6832 13.1188C13.0094 12.7926 13.4517 12.6094 13.913 12.6094Z" fill="#0A0A3C"/>
<path d="M19.1298 12.6094C19.4738 12.6094 19.8099 12.7114 20.0959 12.9025C20.3819 13.0935 20.6049 13.3652 20.7365 13.6829C20.8681 14.0008 20.9025 14.3504 20.8355 14.6878C20.7684 15.0251 20.6027 15.335 20.3595 15.5782C20.1163 15.8214 19.8064 15.9871 19.4691 16.0542C19.1317 16.1212 18.782 16.0868 18.4642 15.9553C18.1465 15.8236 17.8748 15.6006 17.6838 15.3146C17.4926 15.0287 17.3906 14.6925 17.3906 14.3485C17.3906 13.8873 17.5738 13.4449 17.9 13.1188C18.2262 12.7926 18.6685 12.6094 19.1298 12.6094Z" fill="#0A0A3C"/>
<path d="M21.0145 5.07422H6.52171C4.98422 5.07422 3.50971 5.68498 2.42254 6.77213C1.33537 7.85928 0.724609 9.33382 0.724609 10.8713V15.2191C0.724609 13.6816 1.33537 12.2071 2.42254 11.1199C3.50971 10.0328 4.98422 9.422 6.52171 9.422H21.0145C22.5519 9.422 24.0265 10.0328 25.1137 11.1199C26.2008 12.2071 26.8116 13.6816 26.8116 15.2191V10.8713C26.8116 9.33382 26.2008 7.85928 25.1137 6.77213C24.0265 5.68498 22.5519 5.07422 21.0145 5.07422Z" fill="#CFF5FF"/>
<path d="M21.0145 5.07422H6.52171C4.98422 5.07422 3.50971 5.68498 2.42254 6.77213C1.33537 7.85928 0.724609 9.33382 0.724609 10.8713V18.1176C0.724609 19.655 1.33537 21.1295 2.42254 22.2166C3.50971 23.3038 4.98422 23.9146 6.52171 23.9146H7.97099V29.7116L14.4927 23.9146H21.0145C22.5519 23.9146 24.0265 23.3038 25.1137 22.2166C26.2008 21.1295 26.8116 19.655 26.8116 18.1176V10.8713C26.8116 9.33382 26.2008 7.85928 25.1137 6.77213C24.0265 5.68498 22.5519 5.07422 21.0145 5.07422Z" stroke="#0A0A3C" stroke-width="1.66667" stroke-linecap="round" stroke-linejoin="round"/>
<path d="M16.666 28.2619V30.4358C16.666 30.9115 16.7598 31.3827 16.9418 31.8223C17.1239 32.2619 17.3908 32.6613 17.7272 32.9977C18.0637 33.3342 18.4631 33.6011 18.9027 33.7832C19.3423 33.9652 19.8134 34.0589 20.2892 34.0589H23.9125L28.2603 38.4067V34.0589H30.4342C30.9099 34.0589 31.3811 33.9652 31.8207 33.7832C32.2603 33.6011 32.6597 33.3342 32.9961 32.9977C33.3325 32.6613 33.5995 32.2619 33.7816 31.8223C33.9637 31.3827 34.0573 30.9115 34.0573 30.4358V26.088C34.0573 25.1271 33.6756 24.2055 32.9961 23.526C32.3166 22.8466 31.3951 22.4648 30.4342 22.4648H29.7095" stroke="#0A0A3C" stroke-width="1.66667" stroke-linecap="round" stroke-linejoin="round"/>
</g>
<path d="M40.0007 8.69556C40.0007 3.89313 36.1075 0 31.305 0C26.5026 0 22.6094 3.89313 22.6094 8.69556C22.6094 13.498 26.5026 17.3911 31.305 17.3911C36.1075 17.3911 40.0007 13.498 40.0007 8.69556Z" fill="#EA6645"/>
<path d="M29.9035 12.6083L29.8616 12.504L32.2082 7.89119L32.6258 8.41282C32.5842 8.67717 32.4833 8.9207 32.3234 9.1433C32.1704 9.366 31.9791 9.56078 31.7496 9.72782C31.527 9.8879 31.2906 10.0166 31.0402 10.1141C30.7897 10.2046 30.5567 10.2499 30.341 10.2499C29.9445 10.25 29.5793 10.1388 29.2453 9.91625C28.9114 9.68677 28.6435 9.39121 28.4416 9.02956C28.2398 8.66092 28.1388 8.26443 28.1387 7.84008C28.1386 7.32531 28.2602 6.86268 28.5035 6.45218C28.7539 6.04168 29.0877 5.71464 29.505 5.47106C29.9293 5.22747 30.4093 5.10561 30.9449 5.10547C31.3275 5.10536 31.6858 5.17483 32.0198 5.31388C32.3607 5.44596 32.6599 5.63023 32.9173 5.86668C33.1748 6.10313 33.3731 6.37438 33.5123 6.68043C33.6585 6.98647 33.7316 7.31689 33.7317 7.67167C33.7318 7.94992 33.7075 8.22123 33.6588 8.48559C33.6102 8.74296 33.5373 8.99696 33.4399 9.24739C33.3495 9.49782 33.2453 9.75173 33.1271 10.0092C33.0088 10.2596 32.8802 10.5206 32.7412 10.7919L31.7922 12.6078L29.9035 12.6083ZM30.852 8.68458C31.0398 8.68453 31.2068 8.64275 31.3528 8.55923C31.4988 8.46876 31.6136 8.35047 31.697 8.20437C31.7805 8.05825 31.8222 7.89825 31.8222 7.72434C31.8221 7.52956 31.7803 7.35913 31.6968 7.21307C31.6133 7.067 31.4985 6.95226 31.3523 6.86881C31.2062 6.78538 31.0393 6.74369 30.8515 6.74373C30.6636 6.74378 30.5002 6.78556 30.361 6.86908C30.2219 6.94563 30.1107 7.06045 30.0272 7.21351C29.9438 7.35962 29.9021 7.53006 29.9022 7.72484C29.9022 7.89179 29.944 8.04831 30.0275 8.19437C30.118 8.34043 30.2328 8.45866 30.3719 8.54906C30.5181 8.63946 30.6781 8.68463 30.852 8.68458Z" fill="white"/>
</g>
<defs>
<clipPath id="clip0_1_1230">
<rect width="40" height="39.13" fill="white"/>
</clipPath>
</defs>
</svg>
