<svg width="31" height="39" viewBox="0 0 31 39" fill="none" xmlns="http://www.w3.org/2000/svg">
<path d="M16.2075 30.6202C9.96354 30.6202 4.9018 24.0656 4.9018 15.98C4.9018 13.9864 5.20951 12.0859 5.76678 10.3538C5.76678 10.3538 4.51781 9.0452 1.76131 9.0452L1.44727 8.27467C1.44727 8.27467 3.6456 2.88092 10.1843 3.58827C11.9281 2.16398 14.6215 1.33984 16.8356 1.33984C21.37 1.33984 23.4474 3.42514 25.0902 6.55463C25.9244 8.14351 26.9071 9.6198 28.1569 10.7246L28.7694 11.266V13.6684C28.7694 13.6684 23.1499 13.6684 18.0918 13.6684C18.0918 18.2916 16.9903 21.9793 14.9513 23.4236L14.3232 22.9148C14.3232 22.9148 14.9513 18.2916 13.167 16.852C11.9516 18.1871 11.1827 20.1317 11.1827 22.9148C11.1827 27.1704 13.4324 30.6202 16.2075 30.6202ZM16.2075 30.6202C17.7119 27.2187 19.348 24.4559 22.4884 24.4559L22.4883 24.8962C21.5578 26.4769 20.6041 28.5485 20.6041 30.6202C20.6041 32.6919 21.5578 34.7635 22.4883 36.3442L22.4884 36.7845C19.348 36.7845 17.7119 34.0217 16.2075 30.6202ZM20.6041 5.96306V9.0452" stroke="white" stroke-width="2.67875"/>
</svg>
