<svg width="21" height="21" viewBox="0 0 21 21" fill="none" xmlns="http://www.w3.org/2000/svg">
<path d="M10.1193 0C4.53041 0 0 4.53388 0 10.127C0 15.7202 4.53041 20.2541 10.1193 20.2541C15.7082 20.2541 20.2386 15.7202 20.2386 10.127C20.2386 4.53388 15.7082 0 10.1193 0ZM10.1193 2.02541C11.455 2.02541 12.9223 5.09594 13.146 9.11131L7.10475 9.12345C7.32738 5.10808 8.78355 2.02541 10.1193 2.02541ZM6.54617 2.83862C5.67591 4.53287 5.21042 6.77906 5.0981 9.11638L2.08257 9.10726C2.38412 6.34764 4.24099 4.0326 6.54617 2.83862ZM13.6975 2.84369C16.0027 4.03767 17.812 6.28788 18.1611 9.12345L15.1466 9.11434C15.0514 6.68385 14.5141 4.54706 13.6975 2.84369ZM2.08862 11.1438L5.10316 11.1185C5.21549 13.4558 5.684 15.7405 6.55021 17.4165C4.12968 16.2023 2.43672 13.8254 2.08862 11.1438ZM7.08857 11.1519L13.1298 11.1387C12.9072 15.1531 11.455 18.2287 10.1193 18.2287C8.78355 18.2287 7.3112 15.1673 7.08857 11.1519ZM15.1516 11.1418L18.153 11.1327C17.8049 13.8153 16.113 16.2114 13.6934 17.4054C14.592 15.546 15.0393 13.4791 15.1516 11.1418Z" fill="#D9D9D9"/>
</svg>
