<svg width="19" height="19" viewBox="0 0 19 19" fill="none" xmlns="http://www.w3.org/2000/svg">
<path d="M5.05965 0C2.26571 0 0 2.26744 0 5.06352V13.1652C0 15.9612 2.26571 18.2287 5.05965 18.2287H13.1551C15.949 18.2287 18.2147 15.9612 18.2147 13.1652V5.06352C18.2147 2.26744 15.949 0 13.1551 0H5.05965ZM5.05965 2.02541H13.1551C14.8319 2.02541 16.1909 3.38547 16.1909 5.06352V13.1652C16.1909 14.8432 14.8319 16.2033 13.1551 16.2033H5.05965C3.38288 16.2033 2.02386 14.8432 2.02386 13.1652V5.06352C2.02386 3.38547 3.38288 2.02541 5.05965 2.02541ZM13.1551 4.05082C12.5965 4.05082 12.1432 4.50451 12.1432 5.06352C12.1432 5.62253 12.5965 6.07622 13.1551 6.07622C13.7137 6.07622 14.167 5.62253 14.167 5.06352C14.167 4.50451 13.7137 4.05082 13.1551 4.05082ZM9.10737 5.06352C6.87202 5.06352 5.05965 6.87727 5.05965 9.11434C5.05965 11.3514 6.87202 13.1652 9.10737 13.1652C11.3427 13.1652 13.1551 11.3514 13.1551 9.11434C13.1551 6.87727 11.3427 5.06352 9.10737 5.06352ZM9.10737 7.08893C10.2256 7.08893 11.1312 7.9953 11.1312 9.11434C11.1312 10.2334 10.2256 11.1397 9.10737 11.1397C7.98919 11.1397 7.08351 10.2334 7.08351 9.11434C7.08351 7.9953 7.98919 7.08893 9.10737 7.08893Z" fill="#D9D9D9"/>
</svg>
