<svg width="21" height="21" viewBox="0 0 21 21" fill="none" xmlns="http://www.w3.org/2000/svg">
<path d="M13.1526 0C12.8842 0 12.6083 0.14026 12.4145 0.325889C10.8474 1.82753 10.3676 3.08328 10.9405 4.80346C9.60365 5.82893 8.7593 6.08059 7.09042 6.08059C4.80903 6.08059 3.31947 6.35584 2.30592 7.36945V7.40105C1.35754 8.34975 1.35754 9.86881 2.30592 10.8167L5.13953 13.6746L0.311503 18.5041C-0.0836558 18.8991 -0.113101 19.5624 0.282057 19.9574C0.677317 20.3533 1.34155 20.3533 1.73681 19.9574L6.58274 15.1065L9.4211 17.933C10.3696 18.8819 11.8879 18.8819 12.8364 17.933H12.868C13.882 16.9193 14.1645 15.62 14.1645 13.1571C14.1645 11.5914 14.4856 10.4866 15.4578 9.32397C17.3287 9.87286 18.4173 9.34727 19.9516 7.81231C20.1413 7.62243 20.2361 7.35325 20.2361 7.08478C20.2361 6.72862 20.1462 6.18267 19.9199 5.50334C19.5553 4.40952 18.9276 3.30901 17.9277 2.30887C16.9277 1.30882 15.8273 0.680944 14.7337 0.316269C14.0545 0.0898286 13.5087 0 13.1526 0Z" fill="#D9D9D9"/>
</svg>
