<svg width="21" height="17" viewBox="0 0 21 17" fill="none" xmlns="http://www.w3.org/2000/svg">
<path d="M4.04772 0C1.81237 0 0 1.81375 0 4.05081V12.1524C0 14.3895 1.81237 16.2032 4.04772 16.2032H16.1909C18.4263 16.2032 20.2386 14.3895 20.2386 12.1524V4.05081C20.2386 1.81375 18.4263 0 16.1909 0H4.04772ZM4.04772 2.02541H16.1909C17.2109 2.02541 18.0539 2.77481 18.1935 3.75714C17.2241 4.66148 15.7831 5.77139 14.8309 6.45598C12.64 8.03074 10.7123 9.11433 10.1193 9.11433C9.52632 9.11433 7.59859 8.03175 5.40775 6.45598C4.45553 5.77139 3.5195 5.03111 2.81419 4.43058C2.51364 4.17436 2.29101 3.96777 2.11898 3.79764C2.25862 2.81531 3.0277 2.02541 4.04772 2.02541ZM2.03399 6.43472C4.60227 8.5138 8.36563 11.1276 10.1193 11.1397C11.2618 11.1478 13.2158 10.0561 15.2093 8.67785C16.2405 7.9639 17.388 7.11626 18.2158 6.42053L18.2148 12.1524C18.2148 13.2715 17.3091 14.1778 16.1909 14.1778H4.04772C2.92954 14.1778 2.02386 13.2715 2.02386 12.1524L2.03399 6.43472Z" fill="#D9D9D9"/>
</svg>
