<svg width="11" height="11" viewBox="0 0 11 11" fill="none" xmlns="http://www.w3.org/2000/svg">
<path fill-rule="evenodd" clip-rule="evenodd" d="M4.125 0.916667C5.89691 0.916667 7.33333 2.35309 7.33333 4.125C7.33333 5.89691 5.89691 7.33333 4.125 7.33333C3.73989 7.33333 3.37161 7.26568 3.03071 7.14201C2.88045 7.0875 2.71337 7.07531 2.55039 7.11534C2.11264 7.22286 1.66575 7.29106 1.21507 7.31893C1.38455 6.87241 1.4431 6.3897 1.38352 5.91286C1.37027 5.80679 1.33558 5.71377 1.29436 5.63679C1.05346 5.18681 0.916667 4.67256 0.916667 4.125C0.916667 2.35309 2.35309 0.916667 4.125 0.916667ZM8.25 4.125C8.25 1.84683 6.40317 0 4.125 0C1.84683 0 0 1.84683 0 4.125C0 4.82015 0.172323 5.47639 0.476949 6.05202C0.524495 6.47637 0.436389 6.90625 0.22336 7.27905L0.204561 7.31195C-0.0342836 7.72993 0.267521 8.25 0.748932 8.25C1.4217 8.25 2.09061 8.16984 2.74172 8.01221C3.17471 8.1663 3.64057 8.25 4.125 8.25C6.40317 8.25 8.25 6.40317 8.25 4.125ZM9.32947 3.78497C9.13599 3.94819 9.11145 4.23735 9.27467 4.43083C9.7795 5.02928 10.0833 5.80148 10.0833 6.64583C10.0833 7.23368 9.93615 7.7858 9.677 8.26869C9.63546 8.34611 9.60097 8.43901 9.58764 8.54448C9.52212 9.0627 9.58917 9.58766 9.78045 10.0706C9.28256 10.0426 8.78882 9.96842 8.30555 9.8493C8.14242 9.80909 7.97489 9.8212 7.82411 9.87621C7.4572 10.0101 7.06058 10.0833 6.64583 10.0833C5.80148 10.0833 5.02928 9.7795 4.43083 9.27467C4.23735 9.11145 3.94819 9.13599 3.78497 9.32947C3.62176 9.52296 3.64629 9.81212 3.83978 9.97533C4.59739 10.6144 5.57718 11 6.64583 11C7.16022 11 7.65471 10.9106 8.114 10.7461C8.80621 10.9144 9.51749 11 10.2329 11C10.7224 11 11.0293 10.4712 10.7864 10.0462L10.7864 10.0462L10.7664 10.0112C10.5362 9.60826 10.4415 9.14334 10.494 8.6847C10.8171 8.07597 11 7.38159 11 6.64583C11 5.57718 10.6144 4.59739 9.97533 3.83978C9.81212 3.64629 9.52296 3.62176 9.32947 3.78497ZM2.29167 4.58333C2.5448 4.58333 2.75 4.37813 2.75 4.125C2.75 3.87187 2.5448 3.66667 2.29167 3.66667C2.03854 3.66667 1.83333 3.87187 1.83333 4.125C1.83333 4.37813 2.03854 4.58333 2.29167 4.58333ZM4.58333 4.125C4.58333 4.37813 4.37813 4.58333 4.125 4.58333C3.87187 4.58333 3.66667 4.37813 3.66667 4.125C3.66667 3.87187 3.87187 3.66667 4.125 3.66667C4.37813 3.66667 4.58333 3.87187 4.58333 4.125ZM5.95833 4.58333C6.21146 4.58333 6.41667 4.37813 6.41667 4.125C6.41667 3.87187 6.21146 3.66667 5.95833 3.66667C5.7052 3.66667 5.5 3.87187 5.5 4.125C5.5 4.37813 5.7052 4.58333 5.95833 4.58333Z" fill="#CDCDCD"/>
</svg>
