<svg width="40" height="41" viewBox="0 0 40 41" fill="none" xmlns="http://www.w3.org/2000/svg">
<path d="M4.66761 40.5965V29.6728C4.66761 27.8163 3.07105 26.3113 1.10156 26.3113V12.866C1.10156 12.866 3.77595 11.1853 8.23326 11.1853C9.59739 11.1853 10.7945 11.3427 11.7991 11.5612C11.9529 11.5946 12.1022 11.6295 12.2469 11.6655M17.1481 40.597V31.3534H10.9076V30.9333L11.0351 30.6808C13.8858 25.0379 15.365 18.8667 15.365 12.6167V12.0646C16.593 11.6319 18.4166 11.1855 20.7137 11.1855C23.0108 11.1855 24.8344 11.6318 26.0625 12.0645V12.6167C26.0625 13.8243 26.1178 15.0289 26.2274 16.2274C26.2406 16.3718 26.2545 16.5161 26.2693 16.6602M35.4229 40.5969L35.423 34.8389C35.423 32.9138 36.8198 31.3533 38.543 31.3533V20.4912C38.543 20.4912 36.2029 18.7484 32.3027 18.7484C28.4026 18.7484 26.0625 20.4914 26.0625 20.4914V31.3533C27.7859 31.3533 29.1828 32.9141 29.1828 34.8393V40.5967M7.96582 7.82417C7.96582 7.82417 5.11314 6.14351 5.11314 4.0427C5.11314 2.41835 6.51006 1.10156 8.23326 1.10156C9.95646 1.10156 11.3457 2.41835 11.3457 4.0427C11.3457 6.14351 8.5007 7.82417 8.5007 7.82417H7.96582ZM20.4463 7.82417C20.4463 7.82417 17.5936 6.14351 17.5936 4.0427C17.5936 2.41835 18.9905 1.10156 20.7137 1.10156C22.4369 1.10156 23.8262 2.41835 23.8262 4.0427C23.8262 6.14351 20.9812 7.82417 20.9812 7.82417H20.4463ZM32.0765 15.3871C32.0765 15.3871 29.6283 13.9165 29.6283 12.0783C29.6283 10.657 30.8272 9.50482 32.3061 9.50482C33.7849 9.50482 34.9771 10.657 34.9771 12.0783C34.9771 13.9165 32.5356 15.3871 32.5356 15.3871H32.0765Z" stroke="white" stroke-width="2.20253"/>
</svg>
