<svg width="31" height="27" viewBox="0 0 31 27" fill="none" xmlns="http://www.w3.org/2000/svg">
<path d="M1.19141 10.702V10.9662L7.043 15.9857H7.35098C9.22199 14.3807 12.2555 14.3807 14.1265 15.9857L25.2137 25.4963H29.5254V21.7977L28.2935 20.741H25.8297V18.6275H23.3659V16.5141L18.4382 12.2871C16.5672 10.6822 16.5672 8.08003 18.4382 6.47508V6.2109L12.5866 1.19141H12.2786C6.15533 1.19141 1.19141 5.44946 1.19141 10.702Z" stroke="white" stroke-width="2.38111"/>
<path d="M5.25781 13.8662C5.25781 12.8247 6.38449 11.9805 7.77432 11.9805C9.16416 11.9805 10.2908 12.8247 10.2908 13.8662C10.2908 14.9077 9.16416 15.7519 7.77432 15.7519C6.38449 15.7519 5.25781 14.9077 5.25781 13.8662Z" stroke="white" stroke-width="2.67875"/>
</svg>
