<svg width="30" height="31" viewBox="0 0 30 31" fill="none" xmlns="http://www.w3.org/2000/svg">
<g clip-path="url(#clip0_1_1106)">
<path d="M29.9857 15.6395C29.9857 14.3816 29.8836 13.4636 29.6627 12.5117H15.2988V18.1892H23.7301C23.5602 19.6002 22.6423 21.725 20.6024 23.1528L20.5738 23.3429L25.1154 26.8612L25.43 26.8926C28.3198 24.2238 29.9857 20.2971 29.9857 15.6395Z" fill="#4285F4"/>
<path d="M15.2998 30.5973C19.4304 30.5973 22.8981 29.2373 25.431 26.8916L20.6034 23.1518C19.3115 24.0527 17.5776 24.6816 15.2998 24.6816C11.2541 24.6816 7.82043 22.0129 6.59641 18.3242L6.41699 18.3395L1.69457 21.9942L1.63281 22.1659C4.14859 27.1634 9.31621 30.5973 15.2998 30.5973Z" fill="#34A853"/>
<path d="M6.59543 18.3232C6.27246 17.3713 6.08555 16.3513 6.08555 15.2974C6.08555 14.2434 6.27246 13.2236 6.57844 12.2716L6.56988 12.0689L1.78828 8.35547L1.63184 8.42988C0.594961 10.5038 0 12.8326 0 15.2974C0 17.7622 0.594961 20.091 1.63184 22.1648L6.59543 18.3232Z" fill="#FBBC05"/>
<path d="M15.2998 5.91551C18.1725 5.91551 20.1104 7.15641 21.2153 8.1934L25.533 3.9777C22.8812 1.51289 19.4304 0 15.2998 0C9.31621 0 4.14859 3.43371 1.63281 8.43129L6.57941 12.273C7.82043 8.58434 11.2541 5.91551 15.2998 5.91551Z" fill="#EB4335"/>
</g>
<defs>
<clipPath id="clip0_1_1106">
<rect width="30" height="30.7031" fill="white"/>
</clipPath>
</defs>
</svg>
