<svg width="20" height="20" viewBox="0 0 20 20" fill="none" xmlns="http://www.w3.org/2000/svg">
<path d="M2 6C2 5.44688 2.44688 5 3 5H17C17.5531 5 18 5.44688 18 6V16C18 16.5531 18.4469 17 19 17C19.5531 17 20 16.5531 20 16V6C20 4.34375 18.6562 3 17 3H3C1.34375 3 0 4.34375 0 6V16C0 16.5531 0.446875 17 1 17C1.55313 17 2 16.5531 2 16V6ZM5.5 6C5.225 6 5 6.225 5 6.5V8H3.5C3.225 8 3 8.225 3 8.5C3 8.775 3.225 9 3.5 9H5V11H3.5C3.225 11 3 11.225 3 11.5C3 11.775 3.225 12 3.5 12H5V14H3.5C3.225 14 3 14.225 3 14.5C3 14.775 3.225 15 3.5 15H5V16.5C5 16.775 5.225 17 5.5 17C5.775 17 6 16.775 6 16.5V15H8V16.5C8 16.775 8.225 17 8.5 17C8.775 17 9 16.775 9 16.5V15H11V16.5C11 16.775 11.225 17 11.5 17C11.775 17 12 16.775 12 16.5V15H14V16.5C14 16.775 14.225 17 14.5 17C14.775 17 15 16.775 15 16.5V15H16.5C16.775 15 17 14.775 17 14.5C17 14.225 16.775 14 16.5 14H15V12H16.5C16.775 12 17 11.775 17 11.5C17 11.225 16.775 11 16.5 11H15V9H16.5C16.775 9 17 8.775 17 8.5C17 8.225 16.775 8 16.5 8H15V6.5C15 6.225 14.775 6 14.5 6C14.225 6 14 6.225 14 6.5V8H12V6.5C12 6.225 11.775 6 11.5 6C11.225 6 11 6.225 11 6.5V8H9V6.5C9 6.225 8.775 6 8.5 6C8.225 6 8 6.225 8 6.5V8H6V6.5C6 6.225 5.775 6 5.5 6ZM8 14H6V12H8V14ZM11 14H9V12H11V14ZM14 14H12V12H14V14ZM14 11H12V9H14V11ZM11 11H9V9H11V11ZM8 11H6V9H8V11Z" fill="#EBEBEB"/>
</svg>
