<svg width="20" height="20" viewBox="0 0 20 20" fill="none" xmlns="http://www.w3.org/2000/svg">
<path d="M8.69488 2.08333C9.99696 0.784722 12.1115 0.784722 13.4171 2.08333L17.3581 6.01736C18.372 7.03125 18.5977 8.53125 18.0317 9.76042C17.1671 9.21181 16.1428 8.89236 15.0421 8.89236C12.5421 8.89236 10.424 10.5347 9.71919 12.7986L5.40669 8.5C5.18794 8.28472 4.83724 8.28472 4.62196 8.5C4.40669 8.71528 4.40669 9.06944 4.62196 9.28472L9.4796 14.1285C9.47266 14.2326 9.46919 14.3403 9.46919 14.4444C9.46919 15.4097 9.71571 16.3125 10.1497 17.1042C9.82682 17.1215 9.50044 17.0694 9.19141 16.941L7.22266 16.1354C6.3928 15.7951 5.43793 15.9861 4.80599 16.6181L2.93099 18.4826C2.38932 19.0243 1.50738 19.0243 0.962241 18.4826C0.417102 17.941 0.420574 17.0625 0.962241 16.5208L2.81988 14.6667C3.45877 14.0312 3.64627 13.0764 3.30252 12.2431L2.46919 10.2361C2.12196 9.40625 2.31294 8.45139 2.95182 7.81597L8.69488 2.08333ZM10.556 14.4444C10.556 13.2657 11.0242 12.1352 11.8577 11.3017C12.6912 10.4683 13.8217 10 15.0004 10C16.1792 10 17.3096 10.4683 18.1431 11.3017C18.9766 12.1352 19.4449 13.2657 19.4449 14.4444C19.4449 15.6232 18.9766 16.7536 18.1431 17.5871C17.3096 18.4206 16.1792 18.8889 15.0004 18.8889C13.8217 18.8889 12.6912 18.4206 11.8577 17.5871C11.0242 16.7536 10.556 15.6232 10.556 14.4444ZM11.6671 13.8889C11.6671 14.0362 11.7256 14.1775 11.8298 14.2817C11.934 14.3859 12.0753 14.4444 12.2227 14.4444C12.37 14.4444 12.5113 14.3859 12.6155 14.2817C12.7197 14.1775 12.7782 14.0362 12.7782 13.8889C12.7782 13.7415 12.7197 13.6002 12.6155 13.4961C12.5113 13.3919 12.37 13.3333 12.2227 13.3333C12.0753 13.3333 11.934 13.3919 11.8298 13.4961C11.7256 13.6002 11.6671 13.7415 11.6671 13.8889ZM14.4449 16.6667C14.2975 16.6667 14.1562 16.7252 14.052 16.8294C13.9479 16.9336 13.8893 17.0749 13.8893 17.2222C13.8893 17.3696 13.9479 17.5109 14.052 17.6151C14.1562 17.7192 14.2975 17.7778 14.4449 17.7778C14.5922 17.7778 14.7335 17.7192 14.8377 17.6151C14.9419 17.5109 15.0004 17.3696 15.0004 17.2222C15.0004 17.0749 14.9419 16.9336 14.8377 16.8294C14.7335 16.7252 14.5922 16.6667 14.4449 16.6667ZM14.4449 14.4444C14.4449 14.5918 14.5034 14.7331 14.6076 14.8373C14.7118 14.9415 14.8531 15 15.0004 15C15.1478 15 15.2891 14.9415 15.3933 14.8373C15.4975 14.7331 15.556 14.5918 15.556 14.4444C15.556 14.2971 15.4975 14.1558 15.3933 14.0516C15.2891 13.9474 15.1478 13.8889 15.0004 13.8889C14.8531 13.8889 14.7118 13.9474 14.6076 14.0516C14.5034 14.1558 14.4449 14.2971 14.4449 14.4444ZM17.7782 14.4444C17.6309 14.4444 17.4896 14.503 17.3854 14.6072C17.2812 14.7113 17.2227 14.8527 17.2227 15C17.2227 15.1473 17.2812 15.2887 17.3854 15.3928C17.4896 15.497 17.6309 15.5556 17.7782 15.5556C17.9256 15.5556 18.0669 15.497 18.1711 15.3928C18.2752 15.2887 18.3338 15.1473 18.3338 15C18.3338 14.8527 18.2752 14.7113 18.1711 14.6072C18.0669 14.503 17.9256 14.4444 17.7782 14.4444ZM15.0004 11.6667C15.0004 11.814 15.059 11.9553 15.1632 12.0595C15.2673 12.1637 15.4086 12.2222 15.556 12.2222C15.7033 12.2222 15.8446 12.1637 15.9488 12.0595C16.053 11.9553 16.1115 11.814 16.1115 11.6667C16.1115 11.5193 16.053 11.378 15.9488 11.2738C15.8446 11.1696 15.7033 11.1111 15.556 11.1111C15.4086 11.1111 15.2673 11.1696 15.1632 11.2738C15.059 11.378 15.0004 11.5193 15.0004 11.6667Z" fill="#EBEBEB"/>
</svg>
